<svg width="25" height="25" viewBox="0 0 25 25" fill="none" xmlns="http://www.w3.org/2000/svg">
<path d="M0.431054 20.6897H24.5689C24.807 20.6897 25 20.4967 25 20.2586V4.74142C25 4.50338 24.807 4.31036 24.5689 4.31036H0.431054C0.193017 4.31041 0 4.50338 0 4.74142V20.2586C0 20.4967 0.193017 20.6897 0.431054 20.6897Z" fill="#C8414B"/>
<path d="M25 7.75885H0V17.2417H25V7.75885Z" fill="#FFD250"/>
<path d="M10.5603 12.5L10.9258 10.8554C10.9595 10.704 10.8442 10.5603 10.689 10.5603H10.4316C10.2765 10.5603 10.1613 10.704 10.1948 10.8554L10.5603 12.5Z" fill="#C8414B"/>
<path d="M10.9914 11.6377H10.1294V15.3013H10.9914V11.6377Z" fill="#F5F5F5"/>
<path d="M11.2067 11.207H9.91356V11.6381H11.2067V11.207Z" fill="#FAB446"/>
<path d="M11.207 12.5H9.05174V12.9311H11.207V12.5Z" fill="#C8414B"/>
<path d="M11.2069 14.2241L9.91374 13.7931V13.3621L11.2069 13.7931V14.2241Z" fill="#C8414B"/>
<path d="M4.09481 12.5L4.46029 10.8554C4.49398 10.704 4.3787 10.5603 4.22352 10.5603H3.9661C3.81098 10.5603 3.69574 10.704 3.72933 10.8554L4.09481 12.5Z" fill="#C8414B"/>
<path d="M5.60346 11.2069C5.36543 11.2069 5.17241 11.3999 5.17241 11.638V14.4397C5.17241 14.9633 5.66118 15.9483 7.32758 15.9483C8.99398 15.9483 9.48275 14.9634 9.48275 14.4397V11.638C9.48275 11.3999 9.28974 11.2069 9.0517 11.2069H5.60346Z" fill="#F5F5F5"/>
<path d="M7.32758 13.3621H5.17241V11.638C5.17241 11.3999 5.36543 11.2069 5.60346 11.2069H7.32758V13.3621Z" fill="#C8414B"/>
<path d="M7.32758 13.3621H9.48275V14.4396C9.48275 15.0348 9.00033 15.5172 8.40516 15.5172C7.81 15.5172 7.32758 15.0348 7.32758 14.4396V13.3621Z" fill="#C8414B"/>
<path d="M5.17241 13.3621H7.32758V14.4396C7.32758 15.0348 6.84516 15.5172 6.24999 15.5172C5.65483 15.5172 5.17241 15.0348 5.17241 14.4396V13.3621Z" fill="#FAB446"/>
<path d="M6.89652 15.2969V13.3621H6.46547V15.4955C6.62582 15.463 6.77069 15.392 6.89652 15.2969Z" fill="#C8414B"/>
<path d="M6.03446 15.4955V13.3621H5.60341V15.2969C5.72929 15.392 5.87416 15.463 6.03446 15.4955Z" fill="#C8414B"/>
<path d="M6.89661 12.5H5.6035V12.9311H6.89661V12.5Z" fill="#FFB441"/>
<path d="M6.89661 11.6377H5.6035V12.0687H6.89661V11.6377Z" fill="#FAB446"/>
<path d="M6.68089 11.894H5.81883V12.6749H6.68089V11.894Z" fill="#FAB446"/>
<path d="M4.52563 11.6377H3.66357V15.3013H4.52563V11.6377Z" fill="#F5F5F5"/>
<path d="M4.74135 15.0864H3.44824V15.5175H4.74135V15.0864Z" fill="#FAB446"/>
<path d="M4.74135 11.207H3.44824V11.6381H4.74135V11.207Z" fill="#FAB446"/>
<path d="M4.95703 15.5171H3.23291V15.9481H4.95703V15.5171Z" fill="#5064AA"/>
<path d="M11.4225 15.0864H10.1294V15.5175H11.4225V15.0864Z" fill="#FAB446"/>
<path d="M11.4223 15.5171H9.69823V15.9481H11.4223V15.5171Z" fill="#5064AA"/>
<path d="M8.62088 10.7759H6.03465V11.2069H8.62088V10.7759Z" fill="#FAB446"/>
<path d="M7.54334 9.48291H7.11229V10.776H7.54334V9.48291Z" fill="#FFB441"/>
<path d="M6.89652 10.1293C6.53997 10.1293 6.24998 9.83927 6.24998 9.48277C6.24998 9.12623 6.54002 8.83624 6.89652 8.83624C7.25306 8.83624 7.54305 9.12628 7.54305 9.48277C7.5431 9.83927 7.25306 10.1293 6.89652 10.1293ZM6.89652 9.26725C6.77762 9.26725 6.68099 9.36383 6.68099 9.48277C6.68099 9.60167 6.77757 9.6983 6.89652 9.6983C7.01546 9.6983 7.11204 9.60172 7.11204 9.48277C7.11204 9.36388 7.01546 9.26725 6.89652 9.26725Z" fill="#F5F5F5"/>
<path d="M7.75862 10.1293C7.40208 10.1293 7.11209 9.83927 7.11209 9.48277C7.11209 9.12623 7.40213 8.83624 7.75862 8.83624C8.11516 8.83624 8.40515 9.12628 8.40515 9.48277C8.40515 9.83927 8.11512 10.1293 7.75862 10.1293ZM7.75862 9.26725C7.63973 9.26725 7.5431 9.36383 7.5431 9.48277C7.5431 9.60167 7.63968 9.6983 7.75862 9.6983C7.87752 9.6983 7.97415 9.60172 7.97415 9.48277C7.9741 9.36388 7.87752 9.26725 7.75862 9.26725Z" fill="#F5F5F5"/>
<path d="M8.62068 10.5603C8.26414 10.5603 7.97415 10.2703 7.97415 9.91381C7.97415 9.55726 8.26419 9.26727 8.62068 9.26727C8.97723 9.26727 9.26721 9.55731 9.26721 9.91381C9.26721 10.2703 8.97718 10.5603 8.62068 10.5603ZM8.62068 9.69828C8.50179 9.69828 8.40516 9.79486 8.40516 9.91381C8.40516 10.0327 8.50174 10.1293 8.62068 10.1293C8.73958 10.1293 8.83621 10.0328 8.83621 9.91381C8.83621 9.79486 8.73958 9.69828 8.62068 9.69828Z" fill="#F5F5F5"/>
<path d="M6.03446 10.5603C5.67791 10.5603 5.38792 10.2703 5.38792 9.91381C5.38792 9.55726 5.67796 9.26727 6.03446 9.26727C6.391 9.26727 6.68099 9.55731 6.68099 9.91381C6.68104 10.2703 6.391 10.5603 6.03446 10.5603ZM6.03446 9.69828C5.91556 9.69828 5.81893 9.79486 5.81893 9.91381C5.81893 10.0327 5.91551 10.1293 6.03446 10.1293C6.1534 10.1293 6.24998 10.0327 6.24998 9.91376C6.24998 9.79486 6.1534 9.69828 6.03446 9.69828Z" fill="#F5F5F5"/>
<path d="M8.62068 14.2242V14.4397C8.62068 14.5585 8.524 14.6552 8.40516 14.6552C8.28631 14.6552 8.18963 14.5585 8.18963 14.4397V14.2242H8.62068ZM9.05169 13.7932H7.75858V14.4397C7.75858 14.7962 8.04861 15.0862 8.40511 15.0862C8.76165 15.0862 9.05164 14.7962 9.05164 14.4397V13.7932H9.05169Z" fill="#FAB446"/>
<path d="M8.40516 12.9311C8.16712 12.9311 7.97411 12.7381 7.97411 12.5V12.069C7.97411 11.831 8.16712 11.6379 8.40516 11.6379C8.6432 11.6379 8.83621 11.831 8.83621 12.069V12.5C8.83621 12.7381 8.6432 12.9311 8.40516 12.9311Z" fill="#FFA0D2"/>
<path d="M7.32762 14.0084C7.68469 14.0084 7.97416 13.7189 7.97416 13.3619C7.97416 13.0048 7.68469 12.7153 7.32762 12.7153C6.97055 12.7153 6.68109 13.0048 6.68109 13.3619C6.68109 13.7189 6.97055 14.0084 7.32762 14.0084Z" fill="#5064AA"/>
<path d="M7.54334 8.62067H7.11229V9.91378H7.54334V8.62067Z" fill="#FAB446"/>
<path d="M6.03446 10.7759L5.60341 10.3448L5.8559 10.0924C6.24618 9.70208 6.77557 9.48279 7.32758 9.48279C7.87958 9.48279 8.40892 9.70208 8.79925 10.0924L9.05174 10.3448L8.62069 10.7759H6.03446Z" fill="#C8414B"/>
<path d="M7.32762 10.5603C7.44665 10.5603 7.54314 10.4638 7.54314 10.3447C7.54314 10.2257 7.44665 10.1292 7.32762 10.1292C7.20859 10.1292 7.11209 10.2257 7.11209 10.3447C7.11209 10.4638 7.20859 10.5603 7.32762 10.5603Z" fill="#FFD250"/>
<path d="M6.46531 10.5603C6.58435 10.5603 6.68084 10.4638 6.68084 10.3447C6.68084 10.2257 6.58435 10.1292 6.46531 10.1292C6.34628 10.1292 6.24979 10.2257 6.24979 10.3447C6.24979 10.4638 6.34628 10.5603 6.46531 10.5603Z" fill="#FFD250"/>
<path d="M8.18943 10.5603C8.30847 10.5603 8.40496 10.4638 8.40496 10.3447C8.40496 10.2257 8.30847 10.1292 8.18943 10.1292C8.0704 10.1292 7.97391 10.2257 7.97391 10.3447C7.97391 10.4638 8.0704 10.5603 8.18943 10.5603Z" fill="#FFD250"/>
<path d="M5.60351 12.5H3.44824V12.9311H5.60351V12.5Z" fill="#C8414B"/>
<path d="M3.44829 14.2241L4.74135 13.7931V13.3621L3.44829 13.7931V14.2241Z" fill="#C8414B"/>
</svg>
